<svg width="187" height="52" viewBox="0 0 187 52" fill="none" xmlns="http://www.w3.org/2000/svg">
<g clip-path="url(#clip0_171_801)">
<path d="M1.84981 24.8647C1.61274 24.8514 1.37706 24.9087 1.17255 25.0294C0.968033 25.1501 0.803877 25.3287 0.700813 25.5427C0.597755 25.7566 0.560413 25.9964 0.593516 26.2316C0.626619 26.4668 0.728673 26.6869 0.886792 26.8641C1.04491 27.0413 1.25199 27.1676 1.48186 27.2271C1.71172 27.2866 1.95406 27.2766 2.17826 27.1984C2.40245 27.1201 2.59842 26.9772 2.74142 26.7876C2.88441 26.5979 2.968 26.3702 2.98163 26.1331C2.99069 25.9754 2.96859 25.8175 2.9166 25.6684C2.8646 25.5193 2.78373 25.3819 2.6786 25.2641C2.57348 25.1463 2.44618 25.0504 2.30396 24.9818C2.16175 24.9133 2.00742 24.8735 1.84981 24.8647Z" fill="#272727"/>
<path d="M15.7161 25.808C15.66 26.7943 15.9974 27.7625 16.6542 28.5003C17.3109 29.238 18.2335 29.685 19.2193 29.7432H19.4225C20.1487 29.7424 20.8588 29.5289 21.4651 29.1291C22.0714 28.7293 22.5473 28.1606 22.8343 27.4933C23.1213 26.826 23.2066 26.0892 23.0798 25.3739C22.953 24.6586 22.6196 23.9961 22.1208 23.4682C21.622 22.9403 20.9795 22.57 20.2727 22.4031C19.5659 22.2362 18.8258 22.28 18.1436 22.529C17.4614 22.778 16.8671 23.2215 16.4339 23.8045C16.0007 24.3875 15.7476 25.0847 15.7059 25.81L15.7161 25.808Z" fill="#272727"/>
<path d="M1.84981 24.8647C1.61274 24.8514 1.37706 24.9087 1.17255 25.0294C0.968033 25.1501 0.803877 25.3287 0.700813 25.5427C0.597755 25.7566 0.560413 25.9964 0.593516 26.2316C0.626619 26.4668 0.728673 26.6869 0.886792 26.8641C1.04491 27.0413 1.25199 27.1676 1.48186 27.2271C1.71172 27.2866 1.95406 27.2766 2.17826 27.1984C2.40245 27.1201 2.59842 26.9772 2.74142 26.7876C2.88441 26.5979 2.968 26.3702 2.98163 26.1331C2.99069 25.9754 2.96859 25.8175 2.9166 25.6684C2.8646 25.5193 2.78373 25.3819 2.6786 25.2641C2.57348 25.1463 2.44618 25.0504 2.30396 24.9818C2.16175 24.9133 2.00742 24.8735 1.84981 24.8647Z" fill="#272727"/>
<path d="M15.4804 4.21874C15.6915 4.11028 15.8658 3.94175 15.9815 3.73439C16.0971 3.52702 16.1488 3.29007 16.1301 3.05337C16.1113 2.81668 16.023 2.59081 15.8762 2.40421C15.7295 2.21761 15.5308 2.07861 15.3053 2.00471C15.0797 1.93082 14.8373 1.92532 14.6086 1.98892C14.3799 2.05252 14.1752 2.18238 14.0201 2.36214C13.8651 2.5419 13.7666 2.76353 13.7372 2.99914C13.7077 3.23474 13.7487 3.47379 13.8548 3.68618C13.9257 3.82873 14.0242 3.95575 14.1446 4.05987C14.265 4.164 14.4049 4.24313 14.5562 4.29269C14.7075 4.34224 14.867 4.36122 15.0257 4.34853C15.1844 4.33584 15.3389 4.29172 15.4804 4.21874Z" fill="#272727"/>
<path d="M19.2539 10.8006C19.5818 10.6351 19.8533 10.3761 20.0341 10.0563C20.2149 9.7365 20.2968 9.37027 20.2695 9.00387C20.2423 8.63747 20.107 8.28739 19.8809 7.99793C19.6548 7.70841 19.3479 7.4925 18.9992 7.37739C18.6503 7.26234 18.2753 7.25331 17.9213 7.35144C17.5674 7.44957 17.2505 7.65047 17.0107 7.92871C16.7709 8.20701 16.619 8.55014 16.5741 8.91476C16.5292 9.27944 16.5935 9.64917 16.7586 9.97734C16.8681 10.1956 17.0196 10.39 17.2044 10.5495C17.3892 10.709 17.6037 10.8305 17.8354 10.907C18.0672 10.9835 18.3119 11.0134 18.5553 10.9952C18.7987 10.9769 19.0361 10.9108 19.2539 10.8006Z" fill="#272727"/>
<path d="M6.55592 15.3275C6.80869 15.4939 7.10516 15.5816 7.40775 15.5795C7.71039 15.5773 8.00555 15.4856 8.25601 15.3156C8.50642 15.1457 8.7009 14.9053 8.81476 14.6248C8.92862 14.3443 8.95676 14.0364 8.89567 13.7399C8.83459 13.4434 8.687 13.1717 8.47151 12.9591C8.25607 12.7466 7.9824 12.6027 7.68522 12.5457C7.38798 12.4887 7.08058 12.5211 6.80181 12.6389C6.52303 12.7567 6.28539 12.9545 6.11905 13.2074C6.00857 13.3753 5.93221 13.5633 5.89438 13.7607C5.85654 13.9581 5.85794 14.1611 5.89851 14.3579C5.93905 14.5548 6.01801 14.7417 6.1308 14.9081C6.2436 15.0745 6.38803 15.2169 6.55592 15.3275Z" fill="#272727"/>
<path d="M8.81751 24.1879C8.45082 24.1672 8.08626 24.2557 7.7699 24.4422C7.45348 24.6287 7.19946 24.9049 7.03995 25.2358C6.88043 25.5667 6.82255 25.9375 6.87366 26.3013C6.92478 26.6651 7.08251 27.0056 7.32704 27.2797C7.5715 27.5538 7.89178 27.7493 8.24731 27.8413C8.60279 27.9335 8.97762 27.918 9.32443 27.7971C9.67118 27.6761 9.9743 27.455 10.1955 27.1617C10.4167 26.8685 10.546 26.5162 10.5671 26.1494C10.5813 25.9056 10.5474 25.6614 10.4671 25.4308C10.3868 25.2001 10.2619 24.9876 10.0993 24.8053C9.93678 24.6232 9.73987 24.4748 9.51992 24.3688C9.29997 24.2629 9.06127 24.2014 8.81751 24.1879Z" fill="#272727"/>
<path d="M6.75914 36.6787C6.48909 36.8152 6.26558 37.0288 6.11681 37.2923C5.9681 37.5559 5.90081 37.8577 5.9235 38.1595C5.94619 38.4613 6.0578 38.7496 6.24426 38.988C6.43073 39.2263 6.68362 39.404 6.97101 39.4986C7.25846 39.5933 7.56745 39.6005 7.85893 39.5195C8.15048 39.4384 8.41145 39.2728 8.60883 39.0434C8.80622 38.814 8.93125 38.5312 8.96805 38.2308C9.0048 37.9304 8.95173 37.6258 8.81548 37.3556C8.72519 37.1758 8.60029 37.0156 8.44795 36.8843C8.29562 36.7529 8.11883 36.6529 7.9278 36.59C7.73676 36.5271 7.53516 36.5026 7.33462 36.5178C7.13409 36.533 6.93848 36.5877 6.75914 36.6787Z" fill="#272727"/>
<path d="M13.9788 20.3482C14.3405 20.5853 14.7643 20.7098 15.1967 20.7059C15.6291 20.7021 16.0506 20.5701 16.408 20.3266C16.7654 20.0831 17.0426 19.7391 17.2045 19.338C17.3665 18.9369 17.4059 18.4968 17.3179 18.0733C17.2298 17.6498 17.0181 17.262 16.7097 16.9588C16.4013 16.6557 16.0099 16.4508 15.5851 16.37C15.1603 16.2894 14.7211 16.3365 14.3231 16.5055C13.925 16.6745 13.586 16.9578 13.3489 17.3195C13.1914 17.5597 13.0828 17.8286 13.0292 18.1109C12.9757 18.3931 12.9782 18.6831 13.0367 18.9644C13.0952 19.2456 13.2085 19.5126 13.3702 19.75C13.5318 19.9875 13.7386 20.1907 13.9788 20.3482Z" fill="#272727"/>
<path d="M36.8835 10.6542C37.1913 10.8555 37.5517 10.9608 37.9195 10.9571C38.2871 10.9535 38.6454 10.8408 38.9491 10.6334C39.2527 10.426 39.4881 10.1332 39.6254 9.79205C39.7627 9.45082 39.7959 9.07658 39.7206 8.71659C39.6453 8.35654 39.465 8.02695 39.2025 7.76942C38.94 7.5119 38.6071 7.33802 38.2458 7.26975C37.8845 7.20148 37.5111 7.2419 37.1728 7.38592C36.8344 7.52994 36.5464 7.77108 36.345 8.07883C36.2111 8.28329 36.1188 8.5122 36.0735 8.75245C36.0281 8.99264 36.0307 9.23948 36.0809 9.47872C36.1311 9.71796 36.228 9.94497 36.3661 10.1467C36.5042 10.3484 36.6807 10.5209 36.8855 10.6542H36.8835Z" fill="#272727"/>
<path d="M40.6956 4.09281C40.8947 4.22307 41.1278 4.29137 41.3657 4.28909C41.6035 4.28679 41.8354 4.21401 42.0319 4.07995C42.2284 3.94588 42.3808 3.75654 42.4697 3.53586C42.5587 3.31518 42.5803 3.07308 42.5317 2.84014C42.4832 2.6072 42.3667 2.39389 42.197 2.22718C42.0272 2.06047 41.8119 1.94783 41.5782 1.90351C41.3445 1.85918 41.1029 1.88517 40.884 1.97817C40.665 2.07117 40.4785 2.22702 40.3481 2.42601C40.2615 2.55826 40.2017 2.70629 40.1722 2.86165C40.1428 3.01701 40.1442 3.17665 40.1765 3.33145C40.2088 3.48625 40.2713 3.63317 40.3603 3.76381C40.4494 3.89444 40.5633 4.00624 40.6956 4.09281Z" fill="#272727"/>
<path d="M37.1761 22.267C36.2048 22.2335 35.2589 22.5817 34.5409 23.2369C33.8229 23.8922 33.3896 24.8025 33.3339 25.7731C33.2781 26.7438 33.6043 27.6977 34.2426 28.4309C34.8809 29.1641 35.7806 29.6183 36.7494 29.6964H36.9648C37.6823 29.696 38.3843 29.4881 38.9863 29.0976C39.5882 28.7071 40.0644 28.1508 40.3574 27.4956C40.6503 26.8405 40.7476 26.1146 40.6375 25.4054C40.5273 24.6962 40.2144 24.034 39.7365 23.4988C39.4128 23.1338 39.0196 22.8369 38.58 22.6254C38.1405 22.414 37.6633 22.2921 37.1761 22.267Z" fill="#272727"/>
<path d="M20.475 20.09C20.8798 20.9081 21.571 21.5488 22.4171 21.8904C23.2633 22.232 24.2055 22.2506 25.0645 21.9428C25.9235 21.6349 26.6394 21.0219 27.0762 20.2205C27.513 19.4191 27.6401 18.485 27.4334 17.596C27.2267 16.7069 26.7006 15.9249 25.9552 15.3984C25.2097 14.872 24.2969 14.638 23.3902 14.7409C22.4836 14.8438 21.6463 15.2764 21.0376 15.9564C20.4289 16.6365 20.0913 17.5165 20.089 18.4293C20.0869 19.0054 20.2191 19.574 20.475 20.09Z" fill="#272727"/>
<path d="M49.6342 15.3233C49.9043 15.187 50.1279 14.9736 50.2768 14.7102C50.4257 14.4468 50.4932 14.1451 50.4708 13.8432C50.4483 13.5415 50.3369 13.2531 50.1507 13.0146C49.9644 12.7762 49.7117 12.5982 49.4244 12.5034C49.1371 12.4085 48.8282 12.401 48.5367 12.4818C48.2451 12.5625 47.984 12.7279 47.7863 12.957C47.5887 13.1861 47.4635 13.4688 47.4263 13.7691C47.3892 14.0694 47.442 14.374 47.5779 14.6444C47.7607 15.007 48.08 15.2823 48.4656 15.4095C48.8512 15.5369 49.2715 15.5058 49.6342 15.3233Z" fill="#272727"/>
<path d="M40.2059 16.5084C39.8196 16.703 39.4998 17.0078 39.2867 17.3842C39.0736 17.7607 38.9769 18.1918 39.0088 18.6232C39.0408 19.0546 39.1999 19.4669 39.4659 19.8078C39.7321 20.1488 40.0933 20.4032 40.5039 20.5388C40.9146 20.6743 41.3562 20.6851 41.7729 20.5696C42.1897 20.4542 42.5628 20.2177 42.8452 19.89C43.1276 19.5624 43.3066 19.1584 43.3594 18.7291C43.4122 18.2997 43.3366 17.8644 43.1421 17.478C43.0129 17.2215 42.8345 16.9929 42.6171 16.8053C42.3996 16.6178 42.1473 16.4749 41.8747 16.3849C41.6021 16.2949 41.3143 16.2594 41.028 16.2806C40.7416 16.3018 40.4623 16.3792 40.2059 16.5084Z" fill="#272727"/>
<path d="M28.0565 3.5318C28.3582 3.54885 28.6582 3.47617 28.9186 3.32294C29.179 3.16972 29.3882 2.94281 29.5199 2.6708C29.6516 2.3988 29.6998 2.09387 29.6586 1.79448C29.6173 1.49509 29.4883 1.21462 29.288 0.988442C29.0875 0.762256 28.8247 0.600479 28.5325 0.523501C28.2404 0.446524 27.932 0.457793 27.6462 0.555887C27.3604 0.653982 27.1101 0.834508 26.9267 1.07472C26.7434 1.31492 26.6352 1.60405 26.6159 1.90566C26.6029 2.10723 26.6301 2.30937 26.6956 2.50042C26.7611 2.69147 26.8638 2.86766 26.9977 3.01882C27.1316 3.16998 27.2942 3.29314 27.4759 3.38118C27.6576 3.46923 27.8549 3.52042 28.0565 3.5318Z" fill="#272727"/>
<path d="M28.0402 13.1646C28.4719 13.1892 28.9012 13.0852 29.2738 12.8658C29.6464 12.6464 29.9456 12.3213 30.1336 11.9318C30.3216 11.5423 30.3899 11.1058 30.3299 10.6774C30.2699 10.2491 30.0843 9.84812 29.7965 9.52529C29.5087 9.20252 29.1317 8.97225 28.7132 8.86379C28.2946 8.75527 27.8533 8.77331 27.4449 8.91567C27.0367 9.05809 26.6797 9.31834 26.4193 9.66361C26.1589 10.0089 26.0066 10.4237 25.9818 10.8555C25.9491 11.4347 26.1475 12.0031 26.5334 12.4361C26.9193 12.869 27.4613 13.1311 28.0402 13.1646Z" fill="#272727"/>
<path d="M16.1937 35.4916C16.5799 35.2971 16.8997 34.9923 17.1128 34.6158C17.3259 34.2394 17.4226 33.8082 17.3906 33.3768C17.3588 32.9454 17.1997 32.5332 16.9335 32.1922C16.6674 31.8513 16.3062 31.5969 15.8955 31.4613C15.4849 31.3257 15.0433 31.315 14.6265 31.4304C14.2098 31.5459 13.8367 31.7824 13.5543 32.11C13.2719 32.4376 13.093 32.8417 13.0401 33.271C12.9873 33.7003 13.0629 34.1357 13.2575 34.522C13.5187 35.0397 13.9746 35.4326 14.5251 35.6144C15.0756 35.7961 15.6757 35.752 16.1937 35.4916Z" fill="#272727"/>
<path d="M29.4525 16.356C28.9985 17.0486 28.7885 17.8728 28.8555 18.6983C28.9226 19.5238 29.263 20.3033 29.8228 20.9134C30.3826 21.5236 31.1299 21.9295 31.9463 22.067C32.7628 22.2044 33.6017 22.0656 34.3304 21.6724C35.059 21.2792 35.6357 20.6541 35.9692 19.896C36.3027 19.138 36.374 18.2904 36.1716 17.4873C35.9693 16.6842 35.505 15.9716 34.8522 15.4622C34.1995 14.9528 33.3954 14.6758 32.5675 14.6749C31.9495 14.674 31.341 14.8272 30.7971 15.1207C30.2532 15.4142 29.7911 15.8388 29.4525 16.356Z" fill="#272727"/>
<path d="M35.9183 31.912C35.6204 31.3211 35.1702 30.8203 34.6142 30.4615C34.0583 30.1025 33.4167 29.8986 32.7556 29.8705C32.0946 29.8425 31.438 29.9913 30.8536 30.3018C30.2693 30.6124 29.7784 31.0732 29.4315 31.6368C29.0846 32.2004 28.8944 32.8464 28.8803 33.5081C28.8663 34.1699 29.029 34.8234 29.3517 35.4012C29.6744 35.979 30.1454 36.4602 30.716 36.7952C31.2867 37.1302 31.9363 37.3068 32.598 37.3068C33.18 37.3022 33.753 37.1631 34.2724 36.9003C35.1505 36.4556 35.8167 35.6811 36.1251 34.7462C36.4336 33.8113 36.3592 32.7922 35.9183 31.912Z" fill="#272727"/>
<path d="M42.4166 31.6518C42.0551 31.4145 41.6313 31.2897 41.1989 31.2932C40.7665 31.2967 40.3448 31.4284 39.9872 31.6717C39.6296 31.9149 39.3522 32.2587 39.1899 32.6597C39.0277 33.0607 38.988 33.5008 39.0758 33.9244C39.1636 34.348 39.375 34.736 39.6832 35.0393C39.9915 35.3428 40.3828 35.5479 40.8076 35.6288C41.2324 35.7097 41.6716 35.6628 42.0698 35.4941C42.4679 35.3253 42.8072 35.0422 43.0444 34.6806C43.2021 34.4405 43.3108 34.1717 43.3645 33.8895C43.4182 33.6073 43.4159 33.3174 43.3576 33.0361C43.2992 32.7549 43.1861 32.4879 43.0247 32.2504C42.8633 32.0128 42.6566 31.8095 42.4166 31.6518Z" fill="#272727"/>
<path d="M49.5368 26.064C49.5575 25.6972 49.4691 25.3325 49.2826 25.016C49.0962 24.6996 48.82 24.4454 48.4893 24.2859C48.1585 24.1263 47.7878 24.0684 47.4241 24.1195C47.0605 24.1706 46.7201 24.3285 46.4461 24.5731C46.1721 24.8176 45.9766 25.138 45.8846 25.4936C45.7925 25.8492 45.808 26.2242 45.9289 26.5711C46.0498 26.918 46.2708 27.2212 46.564 27.4425C46.8571 27.6637 47.2093 27.7931 47.576 27.8141C47.8196 27.8282 48.0637 27.794 48.2941 27.7136C48.5245 27.6332 48.7369 27.5082 48.919 27.3456C49.1011 27.1831 49.2494 26.9862 49.3555 26.7663C49.4614 26.5464 49.5231 26.3078 49.5368 26.064Z" fill="#272727"/>
<path d="M54.6817 24.7408C54.4442 24.7271 54.2079 24.7842 54.0028 24.9048C53.7977 25.0255 53.633 25.2042 53.5295 25.4185C53.4259 25.6328 53.3882 25.873 53.4212 26.1087C53.4541 26.3444 53.5562 26.565 53.7145 26.7428C53.8728 26.9205 54.0802 27.0471 54.3105 27.1069C54.5408 27.1667 54.7836 27.1568 55.0083 27.0785C55.233 27.0002 55.4294 26.857 55.5728 26.667C55.7161 26.4771 55.7998 26.2488 55.8135 26.0112C55.8313 25.6927 55.7221 25.3802 55.51 25.1421C55.2978 24.9039 55 24.7596 54.6817 24.7408Z" fill="#272727"/>
<path d="M49.8375 36.6725C49.5844 36.5067 49.2878 36.4196 48.9852 36.4224C48.6827 36.4252 48.3877 36.5176 48.1377 36.688C47.8876 36.8584 47.6937 37.0991 47.5804 37.3798C47.4671 37.6604 47.4395 37.9684 47.5011 38.2647C47.5627 38.5611 47.7109 38.8325 47.9267 39.0446C48.1424 39.2568 48.4163 39.4001 48.7135 39.4566C49.0108 39.5132 49.3181 39.4802 49.5966 39.362C49.8752 39.2438 50.1125 39.0457 50.2785 38.7926C50.389 38.6246 50.4653 38.4363 50.503 38.2387C50.5407 38.0411 50.539 37.838 50.498 37.641C50.457 37.444 50.3776 37.2571 50.2643 37.0909C50.1509 36.9247 50.0059 36.7825 49.8375 36.6725Z" fill="#272727"/>
<path d="M15.6999 47.9072C15.501 47.7767 15.2678 47.708 15.03 47.71C14.7921 47.712 14.5601 47.7844 14.3634 47.9183C14.1667 48.0521 14.0141 48.2413 13.9248 48.4619C13.8356 48.6825 13.8137 48.9246 13.862 49.1576C13.9103 49.3906 14.0266 49.6041 14.1961 49.771C14.3657 49.9379 14.5809 50.0508 14.8146 50.0954C15.0483 50.1399 15.2899 50.1142 15.509 50.0214C15.728 49.9286 15.9147 49.7729 16.0453 49.574C16.1321 49.4419 16.192 49.294 16.2216 49.1387C16.2512 48.9834 16.2499 48.8238 16.2178 48.669C16.1857 48.5142 16.1235 48.3673 16.0346 48.2366C15.9457 48.1058 15.832 47.9939 15.6999 47.9072Z" fill="#272727"/>
<path d="M40.9129 47.7811C40.7018 47.8896 40.5275 48.0581 40.4118 48.2655C40.2962 48.4729 40.2445 48.7098 40.2633 48.9465C40.282 49.1832 40.3703 49.4091 40.5171 49.5957C40.6638 49.7823 40.8625 49.9213 41.088 49.9952C41.3136 50.0691 41.556 50.0746 41.7847 50.011C42.0134 49.9474 42.2181 49.8175 42.3732 49.6378C42.5282 49.458 42.6267 49.2363 42.6561 49.0008C42.6856 48.7652 42.6446 48.5261 42.5385 48.3137C42.468 48.1726 42.3703 48.0468 42.2511 47.9436C42.1318 47.8403 41.9934 47.7616 41.8437 47.712C41.694 47.6623 41.536 47.6427 41.3788 47.6542C41.2215 47.6657 41.068 47.7082 40.9272 47.7791L40.9129 47.7811Z" fill="#272727"/>
<path d="M26.9409 35.638C27.3939 34.9459 27.6032 34.1225 27.5359 33.2981C27.4684 32.4737 27.1281 31.6953 26.5687 31.0861C26.0093 30.4769 25.2628 30.0718 24.4473 29.9348C23.6318 29.7978 22.7939 29.9367 22.0663 30.3297C21.3386 30.7226 20.7627 31.3471 20.4298 32.1043C20.0968 32.8614 20.0258 33.708 20.228 34.5101C20.4301 35.3122 20.8939 36.0239 21.5459 36.5326C22.1979 37.0414 23.001 37.3181 23.8279 37.3189C24.4455 37.3194 25.0535 37.166 25.597 36.8725C26.1405 36.579 26.6024 36.1547 26.9409 35.638Z" fill="#272727"/>
<path d="M19.5098 41.3477C19.2025 41.1466 18.8425 41.0411 18.4752 41.0446C18.108 41.0481 17.75 41.1605 17.4467 41.3675C17.1432 41.5745 16.908 41.8668 16.7706 42.2075C16.6332 42.5482 16.5999 42.9221 16.6749 43.2817C16.7499 43.6413 16.9298 43.9706 17.1918 44.228C17.4538 44.4854 17.7863 44.6593 18.1471 44.7278C18.5079 44.7962 18.8809 44.7561 19.219 44.6125C19.557 44.4689 19.8449 44.2283 20.0463 43.9211C20.1804 43.717 20.2729 43.4884 20.3184 43.2485C20.364 43.0086 20.3618 42.7621 20.312 42.523C20.2622 42.284 20.1657 42.0571 20.028 41.8553C19.8904 41.6537 19.7143 41.4812 19.5098 41.3477Z" fill="#272727"/>
<path d="M28.1804 48.4682C27.8783 48.451 27.5779 48.5237 27.3172 48.6773C27.0564 48.8309 26.8471 49.0584 26.7155 49.331C26.584 49.6036 26.5362 49.9091 26.5782 50.2088C26.6203 50.5086 26.7502 50.7892 26.9516 51.0151C27.153 51.2409 27.4168 51.4021 27.7097 51.478C28.0027 51.5539 28.3115 51.5412 28.5972 51.4416C28.8829 51.342 29.1327 51.1598 29.3149 50.9182C29.4972 50.6766 29.6037 50.3863 29.6211 50.0842C29.6439 49.6788 29.5049 49.2811 29.2348 48.9781C28.9647 48.6751 28.5855 48.4917 28.1804 48.4682Z" fill="#272727"/>
<path d="M28.1966 38.8374C27.7651 38.8116 27.3355 38.9145 26.9623 39.1329C26.5892 39.3513 26.2891 39.6755 26.1001 40.0645C25.9111 40.4535 25.8416 40.8898 25.9004 41.3183C25.9592 41.7467 26.1437 42.1482 26.4306 42.4718C26.7174 42.7954 27.0938 43.0267 27.512 43.1363C27.9303 43.246 28.3716 43.2292 28.7803 43.088C29.1889 42.9468 29.5466 42.6876 29.808 42.3431C30.0694 41.9986 30.2229 41.5843 30.249 41.1526C30.2666 40.8657 30.2274 40.5781 30.1337 40.3064C30.04 40.0347 29.8937 39.7841 29.703 39.569C29.5124 39.3539 29.2812 39.1786 29.0227 39.0531C28.7642 38.9275 28.4835 38.8542 28.1966 38.8374Z" fill="#272727"/>
<path d="M37.1395 41.1993C36.8116 41.3661 36.5406 41.6265 36.3607 41.9474C36.1808 42.2683 36.1001 42.6354 36.1288 43.0021C36.1574 43.3689 36.2942 43.719 36.5218 44.0081C36.7494 44.2971 37.0576 44.5121 37.4074 44.6259C37.7572 44.7396 38.1328 44.7471 38.4868 44.6473C38.8408 44.5475 39.1573 44.3448 39.3962 44.0651C39.6351 43.7853 39.7856 43.441 39.8288 43.0756C39.872 42.7102 39.8059 42.3402 39.6388 42.0124C39.4158 41.574 39.0279 41.2421 38.5604 41.0897C38.0929 40.9372 37.584 40.9767 37.1456 41.1993H37.1395Z" fill="#272727"/>
<path d="M67.1561 26.7592H78.6777V29.3061H70.1434V33.654H77.8365V36.203H70.1475V42.795H67.1561V26.7592Z" fill="#272727"/>
<path d="M79.472 36.6543C79.472 32.2373 81.5041 30.2269 85.5237 30.2269C89.5427 30.2269 91.5765 32.2373 91.5765 36.6543C91.5765 41.0713 89.5445 43.0836 85.5237 43.0836C81.5023 43.0836 79.472 41.0652 79.472 36.6543ZM88.6789 36.8189V36.4917C88.6789 33.8268 87.7665 32.5178 85.5237 32.5178C83.2803 32.5178 82.3696 33.8268 82.3696 36.4917V36.8189C82.3696 39.4837 83.2577 40.7928 85.5237 40.7928C87.789 40.7928 88.6789 39.4756 88.6789 36.8108V36.8189Z" fill="#272727"/>
<path d="M94.0052 38.7967V30.4993H96.809V38.3068C96.809 40.0589 97.6745 40.6444 99.0767 40.6444C100.619 40.6444 101.834 39.4044 101.834 37.6523V30.4993H104.639V42.795H102.326L102.092 41.1586H101.927C101.472 41.7718 100.875 42.2661 100.188 42.5997C99.5006 42.9334 98.7431 43.0965 97.9797 43.0755C95.6181 43.0755 94.0052 41.9392 94.0052 38.7967Z" fill="#272727"/>
<path d="M107.91 30.4992H110.223L110.456 32.1356H110.621C111.077 31.5206 111.675 31.0252 112.364 30.6914C113.052 30.3577 113.812 30.1955 114.577 30.2187C116.914 30.2187 118.55 31.3631 118.55 34.4874V42.7868H115.745V34.9874C115.745 33.2332 114.88 32.6498 113.478 32.6498C111.935 32.6498 110.716 33.8877 110.716 35.6379V42.7908H107.912L107.91 30.4992Z" fill="#272727"/>
<path d="M120.949 36.6238C120.949 32.2048 122.934 30.2188 125.669 30.2188C127.352 30.2188 128.614 30.7798 129.362 31.9243H129.502V25.8933H132.306V42.795H129.993L129.76 41.1587H129.614C128.801 42.4433 127.415 43.0755 125.85 43.0755C122.841 43.0755 120.949 41.112 120.949 36.6238ZM129.502 36.8108V36.5303C129.502 34.028 128.661 32.6255 126.698 32.6255C124.617 32.6255 123.853 33.8451 123.853 36.5059V36.8108C123.853 39.4533 124.601 40.6729 126.698 40.6729C128.685 40.6668 129.502 39.2968 129.502 36.8108Z" fill="#272727"/>
<path d="M134.666 39.6159C134.666 36.2722 137.868 35.3473 142.387 35.3473V34.3188C142.387 33.2678 142.013 32.4487 140.284 32.4487C138.486 32.4487 138.018 33.1744 138.018 33.8289V34.1562H135.303C135.281 33.9857 135.273 33.8137 135.279 33.6419C135.279 31.5137 137.289 30.229 140.28 30.229C143.598 30.229 145.187 31.6519 145.187 34.1094V39.9757C145.173 40.1768 145.238 40.3754 145.37 40.5279C145.502 40.6804 145.689 40.7742 145.89 40.7888H146.748V42.7056C146.194 42.9447 145.596 43.0639 144.994 43.0552C143.775 43.0552 142.937 42.4251 142.657 41.3966H142.495C141.682 42.4007 140.485 43.0796 138.569 43.0796C137.167 43.0755 134.666 42.608 134.666 39.6159ZM142.387 37.8861V37.3251C139.723 37.3251 137.551 37.6991 137.551 39.3354C137.551 40.3172 138.181 40.8315 139.42 40.8315C141.279 40.8315 142.376 39.6627 142.376 37.8861H142.387Z" fill="#272727"/>
<path d="M148.733 40.0122V32.7921H147.237V30.4993H148.78L149.294 27.062H151.529V30.4993H153.632V32.7921H151.537V39.7337C151.537 40.4126 151.864 40.7866 152.553 40.7866H153.651V42.7035C153.021 42.935 152.358 43.0614 151.687 43.0775C149.411 43.0754 148.733 41.5327 148.733 40.0122Z" fill="#272727"/>
<path d="M155.908 25.8933H158.672V28.6516H155.908V25.8933ZM155.908 30.4993H158.712V42.795H155.908V30.4993Z" fill="#272727"/>
<path d="M161.189 36.6543C161.189 32.2373 163.221 30.2269 167.24 30.2269C171.259 30.2269 173.301 32.2291 173.301 36.6543C173.301 41.0794 171.269 43.0836 167.249 43.0836C163.227 43.0836 161.189 41.0652 161.189 36.6543ZM170.396 36.8189V36.4917C170.396 33.8268 169.484 32.5178 167.24 32.5178C164.997 32.5178 164.087 33.8268 164.087 36.4917V36.8189C164.087 39.4837 164.974 40.7928 167.24 40.7928C169.506 40.7928 170.396 39.4756 170.396 36.8108V36.8189Z" fill="#272727"/>
<path d="M175.793 30.4993H178.107L178.341 32.1356H178.504C178.958 31.5228 179.554 31.0287 180.24 30.695C180.926 30.3614 181.683 30.198 182.446 30.2188C184.783 30.2188 186.418 31.3632 186.418 34.4874V42.7869H183.614V34.9875C183.614 33.2332 182.748 32.6499 181.347 32.6499C179.804 32.6499 178.589 33.8878 178.589 35.642V42.795H175.785L175.793 30.4993Z" fill="#272727"/>
<path d="M66.5245 13.4349C66.5245 7.80037 69.3693 5.1355 74.2847 5.1355C78.2794 5.1355 81.364 7.14581 81.364 11.3311H78.3038C78.3038 8.94677 76.6682 7.66009 74.331 7.66009C71.1063 7.66009 69.5866 9.53015 69.5866 13.2012V13.6687C69.5866 17.4088 71.082 19.2077 74.331 19.2077C76.8083 19.2077 78.4195 17.9231 78.4195 15.5855H81.364C81.364 19.7688 78.3263 21.7344 74.2847 21.7344C69.3753 21.7323 66.5245 19.2077 66.5245 13.4349Z" fill="#272727"/>
<path d="M83.0933 18.2728C83.0933 14.9311 86.2937 14.0042 90.8048 14.0042V12.9675C90.8048 11.9146 90.4309 11.0974 88.7015 11.0974C86.901 11.0974 86.4338 11.8211 86.4338 12.4756V12.8029H83.7232C83.7024 12.6322 83.6953 12.4603 83.7006 12.2886C83.7006 10.1624 85.7101 8.87573 88.7015 8.87573C92.0201 8.87573 93.6087 10.2986 93.6087 12.7561V18.6244C93.5944 18.8248 93.6597 19.0229 93.7903 19.1753C93.9215 19.3277 94.1073 19.4219 94.308 19.4375C94.346 19.4396 94.384 19.4396 94.4214 19.4375H95.1694V21.3543C94.6167 21.5939 94.0201 21.7137 93.4175 21.706C92.1987 21.706 91.3611 21.0738 91.0809 20.0453H90.9164C90.1037 21.0616 88.9069 21.7283 86.9906 21.7283C85.5926 21.7324 83.0933 21.2649 83.0933 18.2728ZM90.8025 16.543V15.982C88.1388 15.982 85.9642 16.356 85.9642 17.9923C85.9642 18.9741 86.5965 19.4883 87.8336 19.4883C89.7054 19.4883 90.8025 18.3195 90.8025 16.543Z" fill="#272727"/>
<path d="M96.9961 9.15624H99.3107L99.5666 11.0974H99.7435C100.186 9.92864 100.963 8.87574 102.501 8.87574C102.899 8.87075 103.296 8.93968 103.669 9.07901V11.7215H102.771C100.855 11.7215 99.8023 12.7744 99.8023 15.0409V21.4458H96.9985L96.9961 9.15624Z" fill="#272727"/>
<path d="M104.848 15.2806C104.848 10.8636 106.835 8.87565 109.568 8.87565C111.251 8.87565 112.512 9.43665 113.26 10.5831H113.4V4.55212H116.202V21.4518H113.892L113.659 19.8257H113.518C112.705 21.1123 111.321 21.7445 109.755 21.7445C106.741 21.7323 104.848 19.7688 104.848 15.2806ZM113.4 15.4676V15.1871C113.4 12.6869 112.559 11.2843 110.596 11.2843C108.518 11.2843 107.751 12.504 107.751 15.1647V15.4676C107.751 18.1101 108.499 19.3297 110.596 19.3297C112.583 19.3297 113.4 17.9536 113.4 15.4676Z" fill="#272727"/>
<path d="M118.566 18.2728C118.566 14.9311 121.766 14.0042 126.287 14.0042V12.9675C126.287 11.9146 125.913 11.0974 124.184 11.0974C122.384 11.0974 121.916 11.8211 121.916 12.4756V12.8029H119.196C119.175 12.6322 119.168 12.4603 119.173 12.2886C119.173 10.1624 121.183 8.87573 124.174 8.87573C127.493 8.87573 129.081 10.2986 129.081 12.7561V18.6244C129.067 18.8248 129.132 19.0229 129.263 19.1753C129.394 19.3277 129.58 19.4219 129.78 19.4375C129.818 19.4396 129.856 19.4396 129.894 19.4375H130.642V21.3543C130.09 21.5939 129.493 21.7137 128.891 21.706C127.671 21.706 126.834 21.0738 126.553 20.0453H126.389C125.576 21.0616 124.379 21.7283 122.463 21.7283C121.065 21.7324 118.566 21.2649 118.566 18.2728ZM126.287 16.543V15.982C123.624 15.982 121.449 16.356 121.449 17.9923C121.449 18.9741 122.081 19.4883 123.319 19.4883C125.178 19.4883 126.277 18.3195 126.277 16.543H126.287Z" fill="#272727"/>
<path d="M132.468 9.15615H134.783L135.017 10.7924H135.18C135.636 10.179 136.233 9.68456 136.92 9.35087C137.608 9.01724 138.366 8.85422 139.13 8.87565C141.466 8.87565 143.102 10.022 143.102 13.1442V21.4416H140.298V13.6443C140.298 11.8921 139.433 11.3067 138.03 11.3067C136.488 11.3067 135.273 12.5467 135.273 14.2988V21.4518H132.468V9.15615Z" fill="#272727"/>
<path d="M145.532 15.3111C145.532 10.8921 147.564 8.88171 151.584 8.88171C155.603 8.88171 157.637 10.8859 157.637 15.3111C157.637 19.7363 155.605 21.7384 151.584 21.7384C147.563 21.7384 145.532 19.722 145.532 15.3111ZM154.739 15.4737V15.1403C154.739 12.4755 153.827 11.1665 151.584 11.1665C149.341 11.1665 148.43 12.4755 148.43 15.1403V15.4676C148.43 18.1325 149.318 19.4415 151.584 19.4415C153.849 19.4415 154.739 18.1325 154.739 15.4676V15.4737Z" fill="#272727"/>
</g>
<defs>
<clipPath id="clip0_171_801">
<rect width="187" height="51.6476" fill="white" transform="translate(0 0.176147)"/>
</clipPath>
</defs>
</svg>
